<svg width="128" height="128" viewBox="0 0 128 128" fill="none" xmlns="http://www.w3.org/2000/svg">
  <rect width="128" height="128" rx="36" fill="#050816"/>
  <rect x="10" y="10" width="108" height="108" rx="30" fill="url(#paint0_linear)"/>
  <path d="M77.024 42.896C73.312 39.76 68.512 38 62.816 38C52.256 38 44.48 44.272 44.48 53.104C44.48 59.568 48.544 63.12 58.08 65.456L64.992 67.12C69.632 68.272 71.84 69.648 71.84 72.56C71.84 76.624 67.776 79.312 61.696 79.312C55.584 79.312 50.368 76.528 47.2 71.76L38 77.584C42 85.264 50.112 90 61.344 90C73.728 90 81.952 83.568 81.952 73.52C81.952 66.864 78.24 62.96 68.544 60.528L61.632 58.768C56.992 57.648 54.624 56.4 54.624 53.584C54.624 49.968 58.272 47.568 63.648 47.568C68.704 47.568 72.448 49.392 75.296 53.04L77.024 42.896Z" fill="#04111E"/>
  <defs>
    <linearGradient id="paint0_linear" x1="20" y1="12" x2="116" y2="120" gradientUnits="userSpaceOnUse">
      <stop stop-color="#7EB7FF"/>
      <stop offset="0.58" stop-color="#4C8DFF"/>
      <stop offset="1" stop-color="#F7C45A"/>
    </linearGradient>
  </defs>
</svg>
